<?xml version="1.0" encoding="utf-8"?>
<!-- Generator: Adobe Illustrator 22.1.0, SVG Export Plug-In . SVG Version: 6.00 Build 0)  -->
<svg version="1.1" id="Слой_1" xmlns="http://www.w3.org/2000/svg" xmlns:xlink="http://www.w3.org/1999/xlink" x="0px" y="0px"
	 viewBox="0 0 496 496" style="enable-background:new 0 0 496 496;" xml:space="preserve">
<style type="text/css">
	.st0{fill:#5675A7;}
</style>
<path d="M423.4,72.6C376.5,25.8,314.2,0,248,0S119.5,25.8,72.6,72.6C25.8,119.5,0,181.8,0,248s25.8,128.5,72.6,175.4
	C119.5,470.2,181.8,496,248,496s128.6-25.7,175.4-72.6C470.2,376.5,496,314.3,496,248S470.2,119.4,423.4,72.6z M248,480
	C120.1,480,16,375.9,16,248S120.1,16,248,16s232,104.1,232,232S375.9,480,248,480z"/>
<g>
	<path class="st0" d="M108.5,193h14c0.6,0,1.2,0.3,1.6,0.8l52.7,69.5V195c0-1.1,0.9-2,2-2h19c1.1,0,2,0.9,2,2v108c0,1.1-0.9,2-2,2
		h-14c-0.6,0-1.2-0.3-1.6-0.8l-52.7-69.6V303c0,1.1-0.9,2-2,2h-19c-1.1,0-2-0.9-2-2V195C106.5,193.9,107.4,193,108.5,193z"/>
	<path class="st0" d="M237.6,193h19c1.1,0,2,0.9,2,2v90.5h43c1.1,0,2,0.9,2,2V303c0,1.1-0.9,2-2,2h-64c-1.1,0-2-0.9-2-2V195
		C235.6,193.9,236.5,193,237.6,193z"/>
	<path class="st0" d="M351,275.9V303c0,1.1-0.9,2-2,2h-19c-1.1,0-2-0.9-2-2V195c0-1.1,0.9-2,2-2h34.8c28,0,45,18.1,45,41.4
		c0,23.4-17,41.4-45,41.4H351z M362.9,212.2H351v44.5h11.8c15,0,23.5-8.2,23.5-22.2C386.4,220.4,377.9,212.2,362.9,212.2z"/>
</g>
</svg>
